<svg id="visual" viewBox="0 0 900 600" width="900" height="600" xmlns="http://www.w3.org/2000/svg" xmlns:xlink="http://www.w3.org/1999/xlink" version="1.1"><rect x="0" y="0" width="900" height="600" fill="#3fad92"></rect><path d="M0 93L21.5 100.3C43 107.7 86 122.3 128.8 117.5C171.7 112.7 214.3 88.3 257.2 84.7C300 81 343 98 385.8 101.5C428.7 105 471.3 95 514.2 104.5C557 114 600 143 642.8 144.7C685.7 146.3 728.3 120.7 771.2 117.5C814 114.3 857 133.7 878.5 143.3L900 153L900 0L878.5 0C857 0 814 0 771.2 0C728.3 0 685.7 0 642.8 0C600 0 557 0 514.2 0C471.3 0 428.7 0 385.8 0C343 0 300 0 257.2 0C214.3 0 171.7 0 128.8 0C86 0 43 0 21.5 0L0 0Z" fill="#FFFFFF" stroke-linecap="round" stroke-linejoin="miter"></path></svg>