<svg id="visual" viewBox="0 0 960 540" width="960" height="540" xmlns="http://www.w3.org/2000/svg" xmlns:xlink="http://www.w3.org/1999/xlink" version="1.1"><rect x="0" y="0" width="960" height="540" fill="#3fad92"></rect><path d="M0 255L32 236.2C64 217.3 128 179.7 192 178.7C256 177.7 320 213.3 384 209.5C448 205.7 512 162.3 576 157C640 151.7 704 184.3 768 181.8C832 179.3 896 141.7 928 122.8L960 104L960 0L928 0C896 0 832 0 768 0C704 0 640 0 576 0C512 0 448 0 384 0C320 0 256 0 192 0C128 0 64 0 32 0L0 0Z" fill="#FFFFFF" stroke-linecap="round" stroke-linejoin="miter"></path></svg>